<svg width="1178" height="331" viewBox="0 0 1178 331" fill="none" xmlns="http://www.w3.org/2000/svg">
<path d="M401.4 245V86.6H492.37V102.77H417.57V157.77H479.17V173.83H417.57V245H401.4ZM541.953 248.3C533.006 248.3 525.489 246.687 519.403 243.46C513.389 240.233 508.879 235.943 505.873 230.59C502.866 225.237 501.363 219.407 501.363 213.1C501.363 206.647 502.646 201.147 505.213 196.6C507.853 191.98 511.409 188.203 515.883 185.27C520.429 182.337 525.673 180.1 531.613 178.56C537.626 177.093 544.263 175.81 551.523 174.71C558.856 173.537 566.006 172.547 572.973 171.74C580.013 170.86 586.173 170.017 591.453 169.21L585.733 172.73C585.953 160.997 583.679 152.307 578.913 146.66C574.146 141.013 565.859 138.19 554.053 138.19C545.913 138.19 539.019 140.023 533.373 143.69C527.799 147.357 523.876 153.15 521.602 161.07L505.873 156.45C508.586 145.817 514.049 137.567 522.263 131.7C530.476 125.833 541.146 122.9 554.273 122.9C565.126 122.9 574.329 124.953 581.883 129.06C589.509 133.093 594.899 138.96 598.053 146.66C599.519 150.107 600.473 153.957 600.913 158.21C601.353 162.463 601.573 166.79 601.573 171.19V245H587.163V215.19L591.343 216.95C587.309 227.143 581.039 234.917 572.533 240.27C564.026 245.623 553.833 248.3 541.953 248.3ZM543.823 234.33C551.376 234.33 557.976 232.973 563.623 230.26C569.269 227.547 573.816 223.843 577.263 219.15C580.709 214.383 582.946 209.03 583.973 203.09C584.853 199.277 585.329 195.097 585.403 190.55C585.476 185.93 585.513 182.483 585.513 180.21L591.673 183.4C586.173 184.133 580.196 184.867 573.743 185.6C567.363 186.333 561.056 187.177 554.823 188.13C548.663 189.083 543.089 190.22 538.103 191.54C534.729 192.493 531.466 193.85 528.313 195.61C525.159 197.297 522.556 199.57 520.503 202.43C518.523 205.29 517.533 208.847 517.533 213.1C517.533 216.547 518.376 219.883 520.062 223.11C521.823 226.337 524.609 229.013 528.423 231.14C532.309 233.267 537.443 234.33 543.823 234.33ZM683.559 248.3C672.632 248.3 663.392 245.55 655.839 240.05C648.285 234.477 642.565 226.96 638.679 217.5C634.792 207.967 632.849 197.297 632.849 185.49C632.849 173.463 634.792 162.757 638.679 153.37C642.639 143.91 648.432 136.467 656.059 131.04C663.685 125.613 673.072 122.9 684.219 122.9C695.072 122.9 704.385 125.65 712.159 131.15C719.932 136.65 725.872 144.13 729.979 153.59C734.159 163.05 736.249 173.683 736.249 185.49C736.249 197.37 734.159 208.04 729.979 217.5C725.799 226.96 719.785 234.477 711.939 240.05C704.092 245.55 694.632 248.3 683.559 248.3ZM630.099 245V86.6H646.379V155.57H644.619V245H630.099ZM681.909 233.23C690.195 233.23 697.089 231.14 702.589 226.96C708.089 222.78 712.195 217.097 714.909 209.91C717.695 202.65 719.089 194.51 719.089 185.49C719.089 176.543 717.732 168.477 715.019 161.29C712.305 154.103 708.162 148.42 702.589 144.24C697.089 140.06 690.085 137.97 681.579 137.97C673.292 137.97 666.399 139.987 660.899 144.02C655.472 148.053 651.402 153.663 648.689 160.85C645.975 167.963 644.619 176.177 644.619 185.49C644.619 194.657 645.975 202.87 648.689 210.13C651.402 217.317 655.509 222.963 661.009 227.07C666.509 231.177 673.475 233.23 681.909 233.23ZM762.604 103.65V85.5H778.774V103.65H762.604ZM762.604 245V126.2H778.774V245H762.604ZM814.832 245V226.19H833.642V245H814.832ZM901.601 248.3C892.654 248.3 885.138 246.687 879.051 243.46C873.038 240.233 868.528 235.943 865.521 230.59C862.514 225.237 861.011 219.407 861.011 213.1C861.011 206.647 862.294 201.147 864.861 196.6C867.501 191.98 871.058 188.203 875.531 185.27C880.078 182.337 885.321 180.1 891.261 178.56C897.274 177.093 903.911 175.81 911.171 174.71C918.504 173.537 925.654 172.547 932.621 171.74C939.661 170.86 945.821 170.017 951.101 169.21L945.381 172.73C945.601 160.997 943.328 152.307 938.561 146.66C933.794 141.013 925.508 138.19 913.701 138.19C905.561 138.19 898.668 140.023 893.021 143.69C887.448 147.357 883.524 153.15 881.251 161.07L865.521 156.45C868.234 145.817 873.698 137.567 881.911 131.7C890.124 125.833 900.794 122.9 913.921 122.9C924.774 122.9 933.978 124.953 941.531 129.06C949.158 133.093 954.548 138.96 957.701 146.66C959.168 150.107 960.121 153.957 960.561 158.21C961.001 162.463 961.221 166.79 961.221 171.19V245H946.811V215.19L950.991 216.95C946.958 227.143 940.688 234.917 932.181 240.27C923.674 245.623 913.481 248.3 901.601 248.3ZM903.471 234.33C911.024 234.33 917.624 232.973 923.271 230.26C928.918 227.547 933.464 223.843 936.911 219.15C940.358 214.383 942.594 209.03 943.621 203.09C944.501 199.277 944.978 195.097 945.051 190.55C945.124 185.93 945.161 182.483 945.161 180.21L951.321 183.4C945.821 184.133 939.844 184.867 933.391 185.6C927.011 186.333 920.704 187.177 914.471 188.13C908.311 189.083 902.738 190.22 897.751 191.54C894.378 192.493 891.114 193.85 887.961 195.61C884.808 197.297 882.204 199.57 880.151 202.43C878.171 205.29 877.181 208.847 877.181 213.1C877.181 216.547 878.024 219.883 879.711 223.11C881.471 226.337 884.258 229.013 888.071 231.14C891.958 233.267 897.091 234.33 903.471 234.33ZM992.057 103.65V85.5H1008.23V103.65H992.057ZM992.057 245V126.2H1008.23V245H992.057Z" fill="#2E3032"/>
<rect y="2" width="329" height="329" rx="20" fill="#FC4F42"/>
<rect x="207.105" y="24" width="26" height="296" rx="13" transform="rotate(21.4211 207.105 24)" fill="#FEF3F2"/>
<rect x="109.647" y="177.823" width="12.1635" height="106.548" rx="6.08174" transform="rotate(-92.5598 109.647 177.823)" fill="#FEF3F2"/>
<path d="M112.5 166C150.9 157.2 188.833 75 203 35L157.5 166H112.5Z" fill="#FEF3F2"/>
<path d="M167.179 169.268L206.693 173.036C194.373 174.434 183.115 183.76 171.165 202.214C158.782 221.336 145.614 250.322 129.724 290.641L167.179 169.268Z" fill="#FEF3F2" stroke="#FEF3F2" stroke-width="0.5"/>
</svg>
